# xmcd
#
# Track frame offsets: 
#        150
#        33719
#        67943
#        89206
#        116656
#
# Disc length: 2277 seconds
#
# Revision: 0
# Processed by: cddbd v1.5.2PL0 Copyright (c) Steve Scherf et al.
# Submitted via: ExactAudioCopy v0.99pb5
#
DISCID=4408e305
DTITLE=Hawkwind  - Levitation, Disc 2
DYEAR=1900
DGENRE=
TTITLE0=Technicians of Spaceship Earth\\Levitation
TTITLE1=Motor Way City
TTITLE2=Death Trap
TTITLE3=Angels of Death
TTITLE4=The 5th Second of Forever\\Dust of Time
EXTD=
EXTT0=
EXTT1=
EXTT2=
EXTT3=
EXTT4=
PLAYORDER=
